<?xml version="1.0" encoding="UTF-8" standalone="no"?>
<svg
   xmlns:osb="http://www.openswatchbook.org/uri/2009/osb"
   xmlns:dc="http://purl.org/dc/elements/1.1/"
   xmlns:cc="http://creativecommons.org/ns#"
   xmlns:rdf="http://www.w3.org/1999/02/22-rdf-syntax-ns#"
   xmlns:svg="http://www.w3.org/2000/svg"
   xmlns="http://www.w3.org/2000/svg"
   xmlns:sodipodi="http://sodipodi.sourceforge.net/DTD/sodipodi-0.dtd"
   xmlns:inkscape="http://www.inkscape.org/namespaces/inkscape"
   width="475mm"
   height="90mm"
   viewBox="0 0 475 90"
   version="1.1"
   id="svg8"
   inkscape:version="1.0.1 (c497b03c, 2020-09-10)"
   sodipodi:docname="logoText.svg"
   inkscape:export-filename="/Users/hannahkhalique-brown/Desktop/BCAAC Logos/Logo Title.png"
   inkscape:export-xdpi="47.255814"
   inkscape:export-ydpi="47.255814">
  <defs
     id="defs2">
    <linearGradient
       id="linearGradient2795"
       osb:paint="solid">
      <stop
         style="stop-color:#295f40;stop-opacity:1;"
         offset="0"
         id="stop2793" />
    </linearGradient>
  </defs>
  <sodipodi:namedview
     id="base"
     pagecolor="#ffffff"
     bordercolor="#666666"
     borderopacity="1.0"
     inkscape:pageopacity="0.0"
     inkscape:pageshadow="2"
     inkscape:zoom="0.41726541"
     inkscape:cx="774.75756"
     inkscape:cy="528.32985"
     inkscape:document-units="mm"
     inkscape:current-layer="layer1"
     inkscape:document-rotation="0"
     showgrid="false"
     inkscape:snap-object-midpoints="false"
     inkscape:window-width="1440"
     inkscape:window-height="855"
     inkscape:window-x="0"
     inkscape:window-y="204"
     inkscape:window-maximized="0" />
  <metadata
     id="metadata5">
    <rdf:RDF>
      <cc:Work
         rdf:about="">
        <dc:format>image/svg+xml</dc:format>
        <dc:type
           rdf:resource="http://purl.org/dc/dcmitype/StillImage" />
        <dc:title />
      </cc:Work>
    </rdf:RDF>
  </metadata>
  <g
     inkscape:label="Layer 1"
     inkscape:groupmode="layer"
     id="layer1">
    <path
       id="path874"
       style="font-variation-settings:normal;vector-effect:none;fill:#9a9a9a;fill-opacity:1;fill-rule:evenodd;stroke:#ffffff;stroke-width:0.299999;stroke-linecap:butt;stroke-linejoin:round;stroke-miterlimit:4;stroke-dasharray:none;stroke-dashoffset:0;stroke-opacity:0.518219;stop-color:#000000"
       d="m 45.264778,17.907208 c -0.112871,-5.37e-4 -0.225827,8.07e-4 -0.338646,0.0037 -10.760285,0.01 -21.520807,-0.01174 -32.280931,0.02336 -3.7636615,0.212333 -7.3478835,2.548212 -9.0031865,5.952642 -0.864018,1.70944 -1.230998,3.646424 -1.161292,5.555449 0.01386,10.722315 -0.0144,21.444907 0.03065,32.167042 0.220427,3.665206 2.443688,7.149645 5.699607,8.847328 1.745629,0.941783 3.7495335,1.349058 5.7241815,1.28479 10.731891,-0.01021 21.464198,0.01149 32.195886,-0.03242 3.82469,-0.244345 7.439544,-2.696139 9.02859,-6.200686 0.794135,-1.668651 1.104346,-3.539056 1.037735,-5.378922 -0.0095,-10.652264 0.0139,-21.304766 -0.02596,-31.956889 -0.16796,-3.825424 -2.549136,-7.471964 -5.999191,-9.128656 -1.520522,-0.749711 -3.214331,-1.130588 -4.907462,-1.136768 z m -31.300906,1.422308 h 0.02084 c 10.236268,0.0021 20.47253,0.0045 30.708798,0.0068 0.116319,0.175595 0.0635,0.411217 0.143298,0.604838 0.437355,2.040498 1.430559,3.947812 2.785888,5.524183 -0.0982,0.188643 -0.30589,0.294633 -0.435966,0.46304 -2.020834,2.001254 -4.01477,4.029111 -6.042395,6.023738 -0.195235,-0.114264 -0.324805,-0.315456 -0.514376,-0.442281 -3.784222,-3.242266 -9.002683,-4.741347 -13.924184,-3.95814 -3.215472,0.494446 -6.283212,1.907096 -8.749862,4.032851 -0.159352,0.115157 -0.293733,0.305471 -0.471726,0.372281 -0.226482,-0.150304 -0.372067,-0.393308 -0.582163,-0.565545 -1.95557,-1.976817 -3.930503,-3.934114 -5.87521,-5.921654 0.101128,-0.196456 0.301932,-0.322426 0.416778,-0.513801 1.2979,-1.621962 2.149775,-3.584621 2.520274,-5.626289 z m -4.0197935,7.204091 c 0.01809,0.01276 0.03617,0.0254 0.05426,0.03818 0.2785775,0.238842 0.4959825,0.540331 0.7786125,0.775559 1.891916,1.896616 3.786718,3.789593 5.667304,5.69752 -0.110254,0.204078 -0.321065,0.332486 -0.44715,0.528891 -3.218957,3.817424 -4.695392,9.065164 -3.874563,14.001447 0.500775,3.1315 1.867314,6.10976 3.877046,8.556256 0.137755,0.201742 0.333913,0.397508 0.40822,0.622 -0.164289,0.227454 -0.417884,0.372382 -0.591414,0.594322 -1.918139,1.934328 -3.843073,3.864801 -5.775811,5.782737 -0.1998405,-0.100347 -0.3282555,-0.303302 -0.5217005,-0.419174 -1.615744,-1.292462 -3.568575,-2.143806 -5.602279,-2.49695 -0.03503,-0.395618 -0.0048,-0.805255 -0.01491,-1.20607 0.0018,-9.883241 0.0037,-19.766386 0.0055,-29.649615 0.174863,-0.104049 0.400254,-0.05898 0.590585,-0.131843 2.001911,-0.425199 3.880718,-1.377694 5.446282,-2.693265 z m 38.7476965,0.0011 h 1.39e-4 c 0.352484,0.228565 0.631709,0.556136 1.003219,0.758389 1.499617,1.06455 3.248778,1.760381 5.057532,2.070869 0.08286,0.197261 -0.01059,0.423386 0.02197,0.632635 0.0064,10.094608 6.35e-4,20.189162 -0.0013,30.28377 -0.179062,0.109156 -0.411517,0.0646 -0.606885,0.140562 -2.032422,0.432081 -3.935176,1.412126 -5.512956,2.760905 -0.209966,-0.118349 -0.337701,-0.342943 -0.524183,-0.494855 -1.980549,-2.008504 -3.988486,-3.989202 -5.962041,-6.004918 0.126672,-0.203109 0.32455,-0.352864 0.461086,-0.551439 1.089198,-1.284994 2.009899,-2.717829 2.669097,-4.271349 1.996404,-4.497219 1.968223,-9.854041 -0.112501,-14.317005 -0.754328,-1.647635 -1.772157,-3.168983 -2.971153,-4.524387 0.120047,-0.187902 0.322666,-0.30994 0.464128,-0.483786 2.003235,-2.000653 4.00115,-4.009845 6.013535,-5.999391 z m -19.359698,2.43664 c 3.662581,-0.0026 7.356962,1.326525 10.172349,3.711612 0.160188,0.147049 0.352719,0.285415 0.486907,0.445741 -0.132417,0.182745 -0.330959,0.312813 -0.477799,0.487247 -2.304121,2.28419 -4.581377,4.605099 -6.89334,6.875399 -0.219366,-0.09741 -0.380914,-0.293547 -0.605356,-0.388469 -1.839444,-1.05869 -4.303638,-0.89812 -5.977783,0.411986 -0.371319,-0.302689 -0.686921,-0.677918 -1.035112,-1.010048 -2.1101,-2.125142 -4.227054,-4.243453 -6.340582,-6.365173 0.12518,-0.184532 0.345409,-0.289616 0.501405,-0.450861 2.791618,-2.350042 6.39297,-3.684853 10.041198,-3.715071 z m 11.717424,5.215125 0.02139,0.01596 0.01619,0.01149 c 0.260335,0.236801 0.435279,0.551196 0.679075,0.804044 0.987518,1.25051 1.773269,2.654403 2.332526,4.127618 0.981798,2.569156 1.304538,5.398669 0.873041,8.108992 -0.486196,3.053903 -1.85286,5.996875 -3.971336,8.267534 -0.179927,-0.13432 -0.305433,-0.334045 -0.480833,-0.478245 -2.290552,-2.299575 -4.592915,-4.594338 -6.876088,-6.896977 0.07023,-0.206643 0.266158,-0.345291 0.352999,-0.548259 1.098757,-1.818993 0.985599,-4.293448 -0.292533,-5.994411 -0.03419,-0.121157 0.162416,-0.181787 0.213567,-0.281803 2.369016,-2.386998 4.75151,-4.760633 7.132032,-7.136158 z m -23.43899,0.03088 c 0.01496,0.01022 0.0299,0.02132 0.04486,0.03192 0.325724,0.274091 0.578276,0.622894 0.900511,0.901581 2.145691,2.14147 4.286071,4.288111 6.422447,6.43891 -0.329013,0.494434 -0.637229,1.016368 -0.802218,1.59385 -0.511211,1.650266 -0.211739,3.542043 0.839355,4.920734 -0.149392,0.234896 -0.386773,0.402781 -0.570707,0.61148 -2.268068,2.257661 -4.519732,4.53137 -6.792565,6.7845 -0.182445,-0.138137 -0.290062,-0.357574 -0.455292,-0.517824 -1.907378,-2.282772 -3.134714,-5.107691 -3.534128,-8.050611 -0.428606,-3.100962 0.114099,-6.32069 1.504351,-9.138816 0.635534,-1.290382 1.451284,-2.521015 2.44338,-3.575759 z m 8.471412,14.973449 c 0.493994,0.293816 0.977658,0.623736 1.537621,0.781778 1.643828,0.549433 3.546659,0.259255 4.942807,-0.77279 0.201222,0.144879 0.34777,0.355837 0.536747,0.518104 2.342619,2.348919 4.685179,4.697863 7.027802,7.046795 -0.057,0.202225 -0.261453,0.322566 -0.361831,0.504812 -2.519129,3.295529 -5.03401,6.594402 -7.558615,9.88573 -0.222191,-0.05183 -0.385419,-0.240704 -0.605358,-0.30934 -1.646254,-0.7661 -3.668336,-0.610548 -5.199307,0.356922 -0.176259,-0.15684 -0.28122,-0.381536 -0.441767,-0.556136 -2.49688,-3.272764 -4.993807,-6.545453 -7.490691,-9.818205 0.09345,-0.197389 0.317185,-0.298834 0.448806,-0.472859 2.384705,-2.391139 4.766707,-4.787984 7.163786,-7.164811 z m 15.158502,8.705417 c 0.358125,0.273415 0.613359,0.655691 0.960016,0.942664 1.796987,1.802372 3.598594,3.599596 5.384157,5.413369 -0.103656,0.204256 -0.309476,0.336176 -0.426439,0.535389 -1.253344,1.599301 -2.077159,3.522446 -2.439657,5.517813 -0.425329,0.03766 -0.889044,-0.01494 -1.329439,0.0077 -2.93496,0.0013 -5.869984,8.22e-4 -8.804942,-0.0011 -0.15679,-0.183714 -0.121887,-0.459324 -0.258434,-0.659471 -0.232213,-0.539501 -0.586156,-1.012026 -0.913349,-1.495226 0.104038,-0.261566 0.35533,-0.427369 0.49312,-0.67068 2.437324,-3.201616 4.880959,-6.407111 7.334967,-9.590649 z m -23.882551,0.03562 0.02002,0.01774 0.003,0.0026 c 0.236945,0.255362 0.392558,0.569758 0.633243,0.82466 2.403168,3.145224 4.806315,6.2905 7.20948,9.435699 -0.06104,0.205214 -0.279246,0.317346 -0.36777,0.512704 -0.324654,0.487285 -0.519958,1.043293 -0.76453,1.571443 -0.303514,0.07634 -0.618476,-0.02707 -0.927017,0.0143 -3.072571,0.0051 -6.145174,0.01021 -9.217721,-0.0064 -0.102518,-0.202214 -0.0622,-0.447886 -0.142883,-0.661424 -0.430359,-2.00166 -1.3882,-3.879407 -2.706508,-5.437445 0.11046,-0.198372 0.328187,-0.313886 0.468824,-0.492367 1.933306,-1.924536 3.851993,-3.863268 5.791827,-5.781498 z" />
    <text
       xml:space="preserve"
       style="font-style:normal;font-variant:normal;font-weight:normal;font-stretch:normal;font-size:47.9027px;line-height:1.25;font-family:'Times New Roman';-inkscape-font-specification:'Times New Roman, Normal';font-variant-ligatures:normal;font-variant-caps:normal;font-variant-numeric:normal;font-variant-east-asian:normal;fill:#b6b6b6;fill-opacity:1;stroke:none;stroke-width:0.264583"
       x="78.633934"
       y="72.0877"
       id="text3414"
       transform="scale(0.97664261,1.023916)"><tspan
         sodipodi:role="line"
         id="tspan3412"
         x="78.633934"
         y="72.0877"
         style="font-style:normal;font-variant:normal;font-weight:normal;font-stretch:normal;font-size:47.9027px;font-family:'Times New Roman';-inkscape-font-specification:'Times New Roman, Normal';font-variant-ligatures:normal;font-variant-caps:normal;font-variant-numeric:normal;font-variant-east-asian:normal;fill:#b6b6b6;fill-opacity:1;stroke-width:0.264583">Design Guide</tspan></text>
    <text
       xml:space="preserve"
       style="font-style:normal;font-variant:normal;font-weight:normal;font-stretch:normal;font-size:24.6944px;line-height:1.25;font-family:'Times New Roman';-inkscape-font-specification:'Times New Roman, Normal';font-variant-ligatures:normal;font-variant-caps:normal;font-variant-numeric:normal;font-variant-east-asian:normal;fill:#b7b7b7;fill-opacity:1;stroke:none;stroke-width:0.264583"
       x="80.197144"
       y="28.029495"
       id="text2017"
       transform="scale(0.97664261,1.023916)"><tspan
         sodipodi:role="line"
         id="tspan2015"
         x="80.197144"
         y="28.029495"
         style="font-style:normal;font-variant:normal;font-weight:normal;font-stretch:normal;font-size:24.6944px;font-family:'Times New Roman';-inkscape-font-specification:'Times New Roman, Normal';font-variant-ligatures:normal;font-variant-caps:normal;font-variant-numeric:normal;font-variant-east-asian:normal;fill:#b7b7b7;fill-opacity:1;stroke-width:0.264583">Bloomsbury</tspan></text>
  </g>
</svg>
